<svg id="Layer_1" data-name="Layer 1" xmlns="http://www.w3.org/2000/svg" viewBox="0 0 198.76 300"><defs><style>.cls-1{fill:#fff;fill-rule:evenodd;}</style></defs><path class="cls-1" d="M13.68,233a6.92,6.92,0,0,1,1,.07c.88.18,1.09.59,1.14,1.46s.06,1.54.06,5.42v4.49c0,2.35,0,4.37-.14,5.44-.1.74-.23,1.31-.76,1.41a4.71,4.71,0,0,1-1,.1c-.31,0-.42.08-.42.21s.18.25.53.25c1.06,0,2.73-.07,3.23-.07s2.36.07,3.9.07c.34,0,.53-.07.53-.25s-.11-.21-.32-.21a12.94,12.94,0,0,1-1.3-.1c-.79-.1-.95-.67-1-1.41-.13-1.07-.13-3.09-.13-5.46v-.35c0-.16.08-.21.21-.21l2.3.05a.54.54,0,0,1,.48.18c.35.38,1.56,2.11,2.62,3.52,1.49,2,2.49,3.17,3.64,3.75a4.26,4.26,0,0,0,1.92.47l.17,0h3.26a.91.91,0,0,0,.38-.06c.75,0,1.61.06,2.3.06.29,0,.45-.05.45-.26s-.08-.2-.4-.2H36c-.82,0-1.06-.34-1.06-.79a5,5,0,0,1,.39-1.57l1.43-3.64c.06-.16.11-.21.24-.21H42.9a.25.25,0,0,1,.26.18l2.12,5.42a.4.4,0,0,1-.24.58c-.27,0-.37.08-.37.23s.32.19.8.21c2.12.05,4.06.05,5,.05s1.23-.05,1.23-.26-.13-.2-.35-.2a6.52,6.52,0,0,1-1.11-.1c-.56-.13-1.33-.48-2.34-2.79-1.69-3.88-5.93-14.3-6.57-15.71-.26-.59-.43-.82-.66-.82s-.43.29-.74,1l-6.66,16A4.09,4.09,0,0,1,32,251a7,7,0,0,1-1.86-1.37c-1.57-1.59-3.4-3.86-5.75-6.72,2.67-2.09,3.5-3.84,3.5-5.72a4.38,4.38,0,0,0-1.81-3.51,8.78,8.78,0,0,0-4.88-1.1c-.82,0-2.83.09-3.74.09-.55,0-2.22-.09-3.63-.09-.4,0-.58.06-.58.24S13.39,233,13.68,233Zm26.17,4.44c0-.1.08-.23.15-.23s.11.13.14.23l2.38,6.31c0,.07,0,.15-.13.15H37.51c-.1,0-.13-.08-.1-.17ZM19,234.22c0-.21.05-.31.23-.36a5.92,5.92,0,0,1,1.41-.1c1.56,0,4.05,1.05,4.05,4.67,0,2.1-.76,3.27-1.56,3.84a2.72,2.72,0,0,1-1.88.43,7.66,7.66,0,0,1-2-.25c-.18-.08-.23-.18-.23-.47ZM57.76,240v4.72c0,1.1.09,2.33.09,3.61a13.3,13.3,0,0,1-.64,4.52,9.89,9.89,0,0,1-4.51,4.83c-.34.2-.77.4-1.32.66a1.26,1.26,0,0,1-.53.15.21.21,0,0,1-.22-.2c0-.13.14-.23.59-.46a5.67,5.67,0,0,0,1.27-1c2-2,2-4.52,2-9.53V240c0-3.88,0-4.6,0-5.42s-.27-1.28-1.15-1.46a6.92,6.92,0,0,0-1-.07c-.29,0-.45-.06-.45-.23s.19-.24.58-.24c1.41,0,3.08.09,3.77.09s2.3-.09,3.34-.09c.37,0,.56.06.56.24s-.17.23-.48.23a5.37,5.37,0,0,0-.77.07c-.72.13-.93.56-1,1.46S57.76,236.09,57.76,240Zm16.86,11.41c-.26,0-.36.08-.36.23s.31.19.79.21c2.12.05,4.06.05,5,.05s1.22-.05,1.22-.26-.13-.2-.34-.2a6.52,6.52,0,0,1-1.11-.1c-.56-.13-1.33-.48-2.34-2.79-1.69-3.88-5.94-14.3-6.57-15.71-.27-.59-.43-.82-.67-.82s-.42.29-.74,1l-6.66,16c-.53,1.28-1,2.15-2.24,2.31-.22,0-.6,0-.83,0s-.31.05-.31.2.15.26.49.26c1.38,0,2.84-.07,3.13-.07.83,0,2,.07,2.81.07.3,0,.45-.05.45-.26s-.08-.2-.39-.2h-.4c-.82,0-1.06-.34-1.06-.79a5.07,5.07,0,0,1,.4-1.57l1.43-3.64c0-.16.11-.21.24-.21h5.91a.25.25,0,0,1,.26.18l2.13,5.42A.41.41,0,0,1,74.62,251.38ZM72,243.92H67.1c-.11,0-.13-.08-.11-.17l2.44-6.29c0-.1.08-.23.16-.23s.1.13.13.23l2.39,6.31C72.14,243.84,72.11,243.92,72,243.92Zm18.17,4.17c0-1.25-.39-2.45-2.6-4.09l-1.21-.91c-2.92-2.2-3.93-4-3.93-6.07,0-2.8,2.44-4.82,6.12-4.82a13.17,13.17,0,0,1,3.53.44c.24,0,.37.12.37.3,0,.33-.1,1.07-.1,3.07,0,.56-.09.76-.29.76s-.27-.15-.27-.46a3.13,3.13,0,0,0-.69-1.69,3.43,3.43,0,0,0-2.89-1.24c-2,0-3.16,1.09-3.16,2.63,0,1.17.62,2.06,2.82,3.68l.74.53c3.18,2.38,4.34,4.09,4.34,6.52a5.08,5.08,0,0,1-2.49,4.44,7.85,7.85,0,0,1-4.21,1,9.57,9.57,0,0,1-3.87-.66c-.42-.19-.51-.31-.51-.87,0-1.41.11-2.95.13-3.35s.11-.66.33-.66.26.23.26.43a4.87,4.87,0,0,0,.24,1.3A3.64,3.64,0,0,0,86.59,251C89,251,90.14,249.45,90.14,248.09ZM106.08,234v10.47c0,2.35,0,4.37.13,5.47.08.71.24,1.28,1,1.38a11.91,11.91,0,0,0,1.35.1c.3,0,.43.08.43.21s-.22.25-.51.25c-1.74,0-3.42-.07-4.16-.07s-2.28.07-3.35.07c-.34,0-.52-.07-.52-.25s.11-.21.43-.21a4.6,4.6,0,0,0,1-.1c.53-.1.69-.67.76-1.41.14-1.07.14-3.09.14-5.44V234l-4,.1c-1.54,0-2.18.18-2.57.74a2.72,2.72,0,0,0-.45.9c-.05.2-.14.3-.3.3s-.23-.12-.23-.41.5-2.73.55-2.94.16-.48.32-.48a6.14,6.14,0,0,0,1.14.31c.77.07,1.78.13,2.65.13h10.51a15.09,15.09,0,0,0,1.82-.13,6,6,0,0,1,.72-.13c.18,0,.21.15.21.54s-.08,2.29-.08,3c0,.25-.08.41-.24.41s-.26-.13-.29-.51l0-.29c-.05-.66-.77-1.38-3.12-1.42Zm73,17.39.29-16.12c0-1.42.24-2,1-2.17a3.33,3.33,0,0,1,.8-.07c.31,0,.48-.08.48-.23s-.27-.24-.62-.24c-1.29,0-2.3.09-2.59.09-.56,0-1.83-.09-3.21-.09-.4,0-.69,0-.69.24s.1.23.43.23a4.55,4.55,0,0,1,1.4.15c.64.25.87.74.9,2.3l.26,11.47h-.12c-.46-.4-4-4.09-5.84-5.82-3.87-3.71-7.9-7.87-8.22-8.2s-.69-.8-1-.8-.34.36-.34.87l-.24,15.13c0,2.22-.13,2.95-.82,3.16a5,5,0,0,1-1.2.13,1.05,1.05,0,0,0-.21,0,.75.75,0,0,0-.23,0,6.63,6.63,0,0,1-1.12-.1c-.55-.13-1.32-.48-2.33-2.79-1.7-3.88-5.94-14.3-6.58-15.71-.26-.59-.42-.82-.66-.82s-.42.29-.75,1l-6.65,16c-.53,1.28-1,2.15-2.25,2.31-.21,0-.58,0-.82,0-.08,0-.07.06-.12.07a.65.65,0,0,0-.33-.07,11.74,11.74,0,0,1-1.35-.1c-.8-.1-1-.67-1-1.38-.13-1.1-.13-3.12-.13-5.47V240c0-3.88,0-4.6.05-5.42s.27-1.33,1-1.46a6.74,6.74,0,0,1,.78-.07c.31,0,.47-.06.47-.23s-.18-.24-.56-.24c-1,0-2.7.09-3.34.09s-2.38-.09-3.82-.09c-.37,0-.55.06-.55.24s.16.23.45.23a6.92,6.92,0,0,1,1,.07c.88.18,1.09.59,1.14,1.46s.06,1.54.06,5.42v.53a.16.16,0,0,1-.16.18H121.53a.16.16,0,0,1-.16-.18V240c0-3.88,0-4.6.06-5.42s.26-1.33,1-1.46a6.27,6.27,0,0,1,.76-.07c.32,0,.48-.06.48-.23s-.18-.24-.56-.24c-1,0-2.7.09-3.34.09s-2.38-.09-3.81-.09c-.37,0-.56.06-.56.24s.16.23.45.23a6.92,6.92,0,0,1,1,.07c.88.18,1.09.59,1.15,1.46s0,1.54,0,5.42v4.49c0,2.35,0,4.37-.13,5.44-.11.74-.25,1.31-.77,1.41a4.63,4.63,0,0,1-1,.1c-.32,0-.42.08-.42.21s.18.25.53.25c1.06,0,2.73-.07,3.34-.07s2.41.07,4.13.07c.32,0,.53-.07.53-.25s-.13-.21-.42-.21a11.74,11.74,0,0,1-1.35-.1c-.8-.1-1-.67-1-1.38-.13-1.1-.13-3.12-.13-5.47v-2.24a.14.14,0,0,1,.16-.16h10.13a.15.15,0,0,1,.16.16v2.24c0,2.35,0,4.37-.13,5.44-.11.74-.24,1.31-.78,1.41a4.44,4.44,0,0,1-.95.1c-.32,0-.42.08-.42.21s.18.25.55.25c1,0,2.71-.07,3.32-.07s2.41.07,4.13.07a1.15,1.15,0,0,0,.36-.05.94.94,0,0,0,.38.05c1.38,0,2.84-.07,3.13-.07.82,0,2,.07,2.81.07.29,0,.45-.05.45-.26s-.07-.2-.39-.2h-.41c-.81,0-1.06-.34-1.06-.79a5.07,5.07,0,0,1,.4-1.57l1.44-3.64c0-.16.1-.21.23-.21h5.92a.25.25,0,0,1,.26.18l2.12,5.42a.4.4,0,0,1-.23.58c-.27,0-.37.08-.37.23s.31.19.79.21c2.12.05,4,.05,5,.05a4.19,4.19,0,0,0,1-.07,1.09,1.09,0,0,0,.45.07c1.38,0,2.63-.07,2.87-.07.5,0,1.56.07,3.28.07.37,0,.62-.05.62-.25s-.17-.21-.46-.21a4.48,4.48,0,0,1-1.38-.18c-.52-.17-.87-.84-.92-2.83l-.3-10.73h.08c.48.49,3.43,3.68,6.31,6.44s6.16,6,7.83,7.51a1.54,1.54,0,0,0,.9.56C178.92,252.18,179,252,179,251.38Zm-28.74-7.46h-4.88c-.1,0-.13-.08-.1-.17l2.44-6.29c0-.1.07-.23.16-.23s.1.13.13.23l2.38,6.31C150.45,243.84,150.42,243.92,150.29,243.92ZM37.88,298.51a8.32,8.32,0,0,1-1.37-.13c-.73-.15-2.72-.47-5.45-3.17-2.88-2.87-6.24-7-10.58-12.22,4.92-3.81,6.43-7,6.43-10.4a7.93,7.93,0,0,0-3.32-6.37c-2.62-1.72-5.9-2-9-2-1.51,0-5.22.14-6.88.14-1,0-4.09-.14-6.68-.14-.73,0-1.07.09-1.07.42s.29.42.83.42a9.9,9.9,0,0,1,1.9.14c1.61.32,2,1.07,2.1,2.64s.1,2.8.1,9.85v8.19c0,4.27,0,7.94-.25,9.9-.19,1.34-.44,2.36-1.41,2.55a8.66,8.66,0,0,1-1.76.18c-.58,0-.78.14-.78.37s.34.47,1,.47c2,0,5-.14,5.94-.14.74,0,4.34.14,7.17.14.64,0,1-.14,1-.47s-.2-.37-.59-.37c-.58,0-1.66-.09-2.39-.18-1.46-.19-1.75-1.21-1.9-2.55-.24-2-.24-5.63-.24-9.95v-.65c0-.28.15-.38.39-.38l4.24.1a1,1,0,0,1,.87.32c.64.7,2.89,3.86,4.83,6.42,2.73,3.57,4.58,5.75,6.68,6.83,1.27.65,2.49.88,5.22.88h4.63c.58,0,.93-.09.93-.47S38.27,298.51,37.88,298.51Zm-19.6-16.63c-.88.6-1.51.79-3.46.79a13.2,13.2,0,0,1-3.7-.47c-.34-.14-.44-.32-.44-.83V267.24c0-.37.1-.56.44-.65a11,11,0,0,1,2.58-.19c2.87,0,7.46,1.91,7.46,8.51C21.16,278.72,19.75,280.86,18.28,281.88Zm38-18.31c-14.63,0-20.14,10.27-20.14,18.22C36.17,290,41.83,300,55.82,300,68.21,300,76,291.59,76,281S68.45,263.57,56.31,263.57Zm1.56,34.11c-9.36,0-15-7.67-15-17.33,0-11.57,6.39-14.55,12-14.55,8,0,14.28,6.46,14.28,16.87C69.18,296.1,61.28,297.68,57.87,297.68Zm45.78,1.2c0,.33-.4.47-1,.47-3.07,0-6.14-.14-7.46-.14s-4.28.14-6.09.14c-.69,0-1.08-.09-1.08-.47s.25-.37.79-.37a8.42,8.42,0,0,0,1.7-.18c1-.19,1.41-1.21,1.52-2.56.14-1.95.14-3.9.14-4.65v-3.8A9.47,9.47,0,0,0,91,282.44c-.35-.75-6.88-11-8.58-13.38a11.63,11.63,0,0,0-3.37-3.4,5,5,0,0,0-2-.6c-.38,0-.72-.1-.72-.42s.34-.42.92-.42c.88,0,4.53.14,6.14.14,1,0,3-.14,5.22-.14.49,0,.73.14.73.42s-.34.32-1.07.51a.86.86,0,0,0-.69.84,4.28,4.28,0,0,0,.59,1.58c.68,1.39,7.51,12.59,8.29,13.89.49-1.11,6.63-11.34,7.31-12.78a5.81,5.81,0,0,0,.69-2.41,1.13,1.13,0,0,0-1-1.17c-.44-.09-.88-.18-.88-.46s.24-.42.83-.42c1.61,0,3.17.14,4.58.14,1.08,0,4.29-.14,5.22-.14.54,0,.87.09.87.37s-.38.47-.92.47a5.52,5.52,0,0,0-2.15.55,7.34,7.34,0,0,0-2.63,2.28A148.84,148.84,0,0,0,99,282.67a10.65,10.65,0,0,0-.73,4.65v3.8c0,.75,0,2.7.15,4.65.1,1.35.53,2.37,2,2.56a22.07,22.07,0,0,0,2.43.18C103.4,298.51,103.65,298.65,103.65,298.88Zm43.1-.37a11.09,11.09,0,0,1-2.05-.18c-1-.23-2.43-.89-4.29-5.06-3.12-7.07-10.91-26-12.08-28.58-.5-1.07-.79-1.49-1.22-1.49s-.79.51-1.37,1.86L113.5,294.24c-1,2.32-1.9,3.9-4.14,4.18a14.42,14.42,0,0,1-1.51.09c-.4,0-.59.09-.59.37s.3.47.92.47c2.54,0,5.22-.14,5.76-.14,1.51,0,3.6.14,5.16.14.54,0,.83-.09.83-.47s-.14-.37-.73-.37h-.72c-1.52,0-2-.6-2-1.43a8.59,8.59,0,0,1,.73-2.84l2.64-6.65c.09-.27.19-.36.43-.36H131.2a.47.47,0,0,1,.49.32l3.89,9.85a.74.74,0,0,1-.43,1.07c-.49,0-.69.13-.69.41s.59.33,1.47.38c3.9.09,7.45.09,9.21.09s2.24-.09,2.24-.47S147.14,298.51,146.75,298.51ZM130.27,284.9h-9c-.19,0-.24-.14-.19-.33l4.48-11.43c0-.18.15-.41.29-.41s.2.23.25.41l4.38,11.48C130.57,284.76,130.51,284.9,130.27,284.9Zm43.15,8a35.26,35.26,0,0,1-.74,5.34c-.29,1-.53,1.26-3.07,1.26-7,0-10.24-.28-14.19-.28-1.12,0-4.19.14-6.13.14-.64,0-1-.14-1-.47s.19-.37.77-.37a8.58,8.58,0,0,0,1.76-.18c1-.19,1.22-1.21,1.41-2.56.25-1.95.25-5.62.25-9.89v-8.19c0-7.05,0-8.35-.1-9.85s-.48-2.32-2.09-2.64a7.21,7.21,0,0,0-1.62-.14c-.53,0-.83-.1-.83-.42s.35-.42,1.08-.42c2.29,0,5.36.14,6.68.14,1.17,0,4.73-.14,6.62-.14.7,0,1,.09,1,.42s-.29.42-.87.42a12.51,12.51,0,0,0-1.9.14c-1.33.23-1.71,1-1.81,2.64s-.1,2.8-.1,9.85v8.19c0,5.94,0,9.14,1,10,.83.7,2.1,1,5.91,1,2.58,0,4.49,0,5.7-1.29a5.72,5.72,0,0,0,1.27-2.79c0-.42.14-.7.53-.7S173.42,292.34,173.42,292.89ZM198.76,290a9.24,9.24,0,0,1-4.58,8.09,14.7,14.7,0,0,1-7.75,1.9,17.49,17.49,0,0,1-7.12-1.21c-.78-.32-.93-.56-.93-1.57,0-2.56.2-5.35.25-6.1s.19-1.2.58-1.2.49.42.49.79a9.55,9.55,0,0,0,.43,2.37c1.08,3.44,4,4.69,7,4.69,4.4,0,6.54-2.83,6.54-5.29,0-2.28-.73-4.47-4.78-7.44l-2.24-1.68c-5.36-4-7.22-7.24-7.22-11,0-5.11,4.49-8.78,11.27-8.78a24.82,24.82,0,0,1,6.48.79c.44.09.68.24.68.56,0,.6-.19,1.95-.19,5.57,0,1-.15,1.4-.54,1.4s-.49-.28-.49-.84a5.5,5.5,0,0,0-1.26-3.07,6.3,6.3,0,0,0-5.32-2.27c-3.6,0-5.8,2-5.8,4.78,0,2.14,1.12,3.77,5.17,6.7l1.36,1C196.61,282.48,198.76,285.6,198.76,290ZM29.09,212.79a11.46,11.46,0,0,0,6.12,1.67,25,25,0,0,0,14.73-4.39,35.13,35.13,0,0,0,10.37-11.56,43.06,43.06,0,0,0,3.89-10.07q.48-1.81,2.34-10.8a67.47,67.47,0,0,1,2.71-10.15,37.36,37.36,0,0,0,4.08,1.11,20.86,20.86,0,0,0,4,.44,13.74,13.74,0,0,0,7.15-1.5,6.18,6.18,0,0,0,3.27-5.63,6,6,0,0,0-3.09-5.35,11.87,11.87,0,0,0-6.39-1.75,14.93,14.93,0,0,0-6.71,1.47,12.29,12.29,0,0,0-5.26,4.62A29.85,29.85,0,0,1,55.5,149.34a35.6,35.6,0,0,1-4.77-18.18q.15-14.1,8.94-23.44T82,98.55a71.92,71.92,0,0,1,10.89.77q-1.74.9-3.45,2a32.19,32.19,0,0,0-8.9,7.73,19.18,19.18,0,0,0-4.25,11.74,11.27,11.27,0,0,0,1.92,6.71,6.16,6.16,0,0,0,5.17,2.84,6.34,6.34,0,0,0,4.72-2,6.9,6.9,0,0,0,2-4.92,6.42,6.42,0,0,0-1-3.94c-.13-.39-.32-.58-.59-.59s-.45.28-.59.86a6.14,6.14,0,0,1-1.27,3,2.87,2.87,0,0,1-2.17.77,2.57,2.57,0,0,1-2.35-1.56,7.24,7.24,0,0,1-.79-3.58c0-.19,0-.57.08-1.15,0-2.53,1.28-5.15,3.73-7.88a28.34,28.34,0,0,1,4.12-3.61,1.1,1.1,0,0,0,0,1,60.34,60.34,0,0,1,2.49,5.82,14.18,14.18,0,0,1,.76,3.64l-.54.32c-.52.52-.79.91-.79,1.15s.21.54.65.74l.76.38-.77,97.51c0,.92-.68,1.93-2,3-1.78,1.64-2.71,2.54-2.8,2.69a1,1,0,0,0-.2.47,1.55,1.55,0,0,0-.08.4c0,.56.39.84,1.17.86a36.88,36.88,0,0,0,3.9-.13A24.31,24.31,0,0,0,96,223l1.65-.06c.5,0,1.08.06,1.7.11a25.1,25.1,0,0,0,4.08.62,38,38,0,0,0,3.89.25c.79,0,1.19-.28,1.19-.83a1.56,1.56,0,0,0,0-.4,1.38,1.38,0,0,0-.2-.48,39,39,0,0,0-2.76-2.76c-1.31-1.13-2-2.17-1.95-3.09l.77-97.51.76-.35c.44-.19.67-.44.67-.72s-.26-.64-.78-1.18l-.53-.33a13.71,13.71,0,0,1,.84-3.62c.62-1.62,1.5-3.54,2.62-5.76a1,1,0,0,0,0-1,28.4,28.4,0,0,1,4,3.69c2.4,2.81,3.59,5.46,3.55,8,0,.57.06,1,.06,1.16a7.31,7.31,0,0,1-.85,3.55,2.56,2.56,0,0,1-2.39,1.5,2.86,2.86,0,0,1-2.15-.84,6.21,6.21,0,0,1-1.22-3c-.12-.57-.32-.86-.58-.88s-.46.2-.59.59a6.34,6.34,0,0,0-1.08,3.91,6.9,6.9,0,0,0,1.89,5,6.45,6.45,0,0,0,4.69,2.11,6.1,6.1,0,0,0,5.22-2.71,11.16,11.16,0,0,0,2.07-6.66,19.25,19.25,0,0,0-4-11.83,32.71,32.71,0,0,0-8.73-8c-1.13-.74-2.27-1.41-3.42-2A74.41,74.41,0,0,1,115.36,99q13.58.18,22.16,9.75T146,132.42a35.53,35.53,0,0,1-5.15,18,29.81,29.81,0,0,1-11.07,11.29,12.44,12.44,0,0,0-5.16-4.76,15.13,15.13,0,0,0-6.68-1.66,11.83,11.83,0,0,0-6.42,1.59,6,6,0,0,0-3.2,5.27,6.19,6.19,0,0,0,3.14,5.72,14,14,0,0,0,7.12,1.69,20.79,20.79,0,0,0,4-.35,32.94,32.94,0,0,0,4.09-1,69.38,69.38,0,0,1,2.51,10.23c1.11,6,1.82,9.64,2.1,10.85A43.9,43.9,0,0,0,135,199.48a35.41,35.41,0,0,0,10.13,11.85,25.19,25.19,0,0,0,14.63,4.77,11.54,11.54,0,0,0,6.15-1.52,5.53,5.53,0,0,0,3-4.91,3.86,3.86,0,0,0-1.92-3.44,4.81,4.81,0,0,0-3.39-1c-.35.14-.52.33-.52.57a1.48,1.48,0,0,0,.41.85,3.18,3.18,0,0,1,.57,1.17,9,9,0,0,1,.15,1.93,3.08,3.08,0,0,1-1.65,2.38,6.3,6.3,0,0,1-3.08.76q-4.44-.06-8.18-4.68a44.68,44.68,0,0,1-6-10.85C144.5,195.31,143,191.2,141,185q-2-6.12-4.06-10.8a49.76,49.76,0,0,0-4.35-8.07,41.46,41.46,0,0,0,24-36.77A32.63,32.63,0,0,0,145.67,104Q135,94.16,119.59,94a70.13,70.13,0,0,0-15.16,1.18,46,46,0,0,0-5.72,1.69A44,44,0,0,0,93,95,69.88,69.88,0,0,0,77.91,93.4q-15.4-.2-26.28,9.41a32.44,32.44,0,0,0-11.44,25,41.74,41.74,0,0,0,23.22,37.4,48.09,48.09,0,0,0-4.52,7.94c-1.42,3.09-2.85,6.65-4.29,10.71q-3.3,9.19-4.64,12.23a43.79,43.79,0,0,1-6.18,10.69q-3.83,4.51-8.27,4.47a6.33,6.33,0,0,1-3-.84A3.06,3.06,0,0,1,30.85,208a8.44,8.44,0,0,1,.19-1.93,3.15,3.15,0,0,1,.59-1.15,1.72,1.72,0,0,0,.44-.84c0-.24-.18-.43-.52-.59a4.76,4.76,0,0,0-3.4.91,3.83,3.83,0,0,0-2,3.39A5.59,5.59,0,0,0,29.09,212.79Zm44.86-53a8.25,8.25,0,0,1,4.52-1.32,6.39,6.39,0,0,1,3.26.92,2.75,2.75,0,0,1,1.4,2.49,2.92,2.92,0,0,1-2,2.81,9.74,9.74,0,0,1-3.91.6,11.9,11.9,0,0,1-3.29-.55,9,9,0,0,1-3-1.42A7,7,0,0,1,74,159.76ZM122,165.34a12.82,12.82,0,0,1-3.29.48,10.21,10.21,0,0,1-3.9-.71,3,3,0,0,1-1.93-2.87,2.79,2.79,0,0,1,1.46-2.46,6.1,6.1,0,0,1,3.27-.82,8.2,8.2,0,0,1,4.48,1.44A7,7,0,0,1,125,164,9,9,0,0,1,122,165.34Zm-14.53-59.69a1.29,1.29,0,0,0-.52.07,19.87,19.87,0,0,0-2.25,1.79,75.67,75.67,0,0,1-5.95,4.72l-.24.15-.23-.16a72.23,72.23,0,0,1-5.85-4.88,21.19,21.19,0,0,0-2.21-1.84,1.24,1.24,0,0,0-.54-.08,28.53,28.53,0,0,1,2.73-1.79,39.3,39.3,0,0,1,6.22-2.74,39.57,39.57,0,0,1,6.17,2.91A29.44,29.44,0,0,1,107.51,105.65ZM140,87a23.73,23.73,0,0,1,6.54-11.45,1.7,1.7,0,0,0,.22,0A2.59,2.59,0,1,0,144.11,73a2.43,2.43,0,0,0,.32,1.16,12.12,12.12,0,0,1-7.6,2.69,11.76,11.76,0,0,1-12-11.54,9.75,9.75,0,0,1,.11-1.1,2.58,2.58,0,0,0,1.54-2.33,2.68,2.68,0,0,0-5.36,0,2.47,2.47,0,0,0,.43,1.33,12.07,12.07,0,0,1-10,5.21A11.86,11.86,0,0,1,100,59.47a2.52,2.52,0,0,0,.8-1.83,2.69,2.69,0,0,0-5.37,0A2.59,2.59,0,0,0,97,60a11.89,11.89,0,0,1-11.48,8.38,12,12,0,0,1-10.39-5.84,2.43,2.43,0,0,0,.47-1.37,2.69,2.69,0,0,0-5.37,0,2.56,2.56,0,0,0,2,2.45,11.27,11.27,0,0,1,.22,2,11.77,11.77,0,0,1-12,11.54,12.07,12.07,0,0,1-8.4-3.4,2.51,2.51,0,0,0-2.51-3.42,2.59,2.59,0,1,0,0,5.17,2.71,2.71,0,0,0,1.13-.26.49.49,0,0,0,.06.17,21.93,21.93,0,0,1,6.16,11.68h0c.47-.22,1-.42,1.5-.63-.83.35-1.68.7-2.45,1.08,0,0-2.56,1.67-.89,3.88a2.5,2.5,0,0,0,2.47.7,114.86,114.86,0,0,1,40.84-7.34c15.9,0,30.21,2.72,40.17,7A3,3,0,0,0,142,91s1.39-1.69-.78-3.15a28.88,28.88,0,0,0-2.58-1.46c.39.2.82.38,1.19.6Zm-12.5-4.64c-.9-.22-1.84-.4-2.78-.59C125.69,81.92,126.63,82.1,127.53,82.32Zm-5.21-1.06c-1-.18-2.06-.31-3.1-.46C120.26,81,121.31,81.08,122.32,81.26Zm-5.59-.8c-1.09-.12-2.22-.21-3.34-.31C114.51,80.25,115.64,80.34,116.73,80.46Zm-12-.84c-1.32,0-2.67-.05-4-.07C102,79.57,103.37,79.58,104.69,79.62Zm6.14.3c-1.16-.08-2.36-.12-3.54-.18C108.47,79.8,109.67,79.84,110.83,79.92Zm-15-.34c-1.21,0-2.42,0-3.6.08C93.42,79.61,94.63,79.6,95.84,79.58Zm-6.48.27c-1.06.07-2.13.13-3.16.22C87.23,80,88.3,79.92,89.36,79.85ZM77.73,81.18c-.94.15-1.9.29-2.82.47C75.83,81.47,76.79,81.33,77.73,81.18Zm5.66-.79c-1,.12-2,.22-3,.35C81.38,80.61,82.39,80.51,83.39,80.39Zm-11,1.8c-.89.19-1.8.38-2.66.59C70.59,82.57,71.5,82.38,72.39,82.19Zm-9.67,2.68c-.75.26-1.5.51-2.21.79C61.22,85.38,62,85.13,62.72,84.87Zm4.66-1.45c-.83.24-1.67.46-2.47.71C65.71,83.88,66.55,83.66,67.38,83.42Zm67.13,1.07c.73.28,1.45.56,2.13.86C136,85.05,135.24,84.77,134.51,84.49ZM129.87,83c.83.24,1.66.47,2.46.73C131.53,83.42,130.7,83.19,129.87,83ZM41.59,61.35c0-.3.1-.6.16-.9A3.41,3.41,0,0,1,39.17,59a3.19,3.19,0,0,1,.89-4.53,3.49,3.49,0,0,1,3.54-.16c.09-.21.18-.43.28-.65a3.27,3.27,0,0,1-1.49-1.34,3.2,3.2,0,0,1,1.3-4.43,3.48,3.48,0,0,1,3.37,0l.47-.67A3.31,3.31,0,0,1,46.39,46a3.21,3.21,0,0,1,1.7-4.3,3.48,3.48,0,0,1,3.7.6l.58-.58a3.19,3.19,0,0,1-.93-1.36,3.23,3.23,0,0,1,2.1-4.14,3.46,3.46,0,0,1,3.89,1.25c.21-.16.43-.31.65-.46a3.31,3.31,0,0,1-.59-1.17,3.27,3.27,0,0,1,2.45-4,3.42,3.42,0,0,1,3.82,1.65l.64-.33A3.22,3.22,0,0,1,64,32a3.27,3.27,0,0,1,2.77-3.75,3.4,3.4,0,0,1,3.78,2.21l.75-.27a3.17,3.17,0,0,1-.22-.92,3.27,3.27,0,0,1,3.08-3.51A3.35,3.35,0,0,1,77.7,28.3l1.1-.25A3.37,3.37,0,1,1,85.44,27s-.08,1.36,2.1,1.36H109c2.18,0,2.1-1.36,2.1-1.36a3.39,3.39,0,0,1,6.75.3,2.9,2.9,0,0,1-.11.79l1.11.25a3.35,3.35,0,0,1,3.57-2.52,3.29,3.29,0,0,1,3.09,3.51,3.19,3.19,0,0,1-.23.92l.76.27a3.4,3.4,0,0,1,3.77-2.21A3.26,3.26,0,0,1,132.6,32a3,3,0,0,1-.44,1.14l.64.33a3.43,3.43,0,0,1,3.83-1.65,3.25,3.25,0,0,1,2.44,4,3.29,3.29,0,0,1-.58,1.17c.22.15.44.3.64.46a3.47,3.47,0,0,1,3.9-1.25,3.23,3.23,0,0,1,2.09,4.14,3.19,3.19,0,0,1-.93,1.36c.2.19.4.38.59.58a3.46,3.46,0,0,1,3.69-.6,3.2,3.2,0,0,1,1.7,4.3A3.38,3.38,0,0,1,149,47.3c.16.22.32.44.47.67a3.48,3.48,0,0,1,3.37,0,3.19,3.19,0,0,1,1.3,4.43,3.3,3.3,0,0,1-1.48,1.34l.27.65a3.49,3.49,0,0,1,3.54.16,3.18,3.18,0,0,1,.89,4.53,3.39,3.39,0,0,1-2.58,1.41c.06.3.11.6.17.9a3.38,3.38,0,0,1,2,.75,3.17,3.17,0,0,1,.42,4.58,3.37,3.37,0,0,1-2,1.11H143.21L124.54,53.9a2.83,2.83,0,0,1-1.3-.48c-6.36-4.59-11.33-4.78-11.33-4.78a2.59,2.59,0,0,1-1.79-3.07V43.18L104.46,39a1,1,0,0,1,.19.57v1.8a.88.88,0,0,1-.77,1H93.08a.88.88,0,0,1-.77-1v-1.8a.88.88,0,0,1,.77-1h10.8c.08,0,.12.07.19.1l-.43-.32H92.92l-5.57,4.14v3.06a2.59,2.59,0,0,1-1.79,3.07s-5,.19-11.33,4.78c0,0-1.35.92-1.82.2L53.35,67.79H41.19a3.39,3.39,0,0,1-2-1.11,3.18,3.18,0,0,1,.42-4.58A3.39,3.39,0,0,1,41.59,61.35ZM98,10.8A1.11,1.11,0,0,1,96.9,9.72V8.79A1.11,1.11,0,0,1,98,7.71h1a1.12,1.12,0,0,1,1.14,1.08v.93A1.12,1.12,0,0,1,99,10.8Zm-8.87,5.45-.07-14.1s.22-1.45,1.43-.34L96.34,8.1a1.62,1.62,0,0,1-.15,2.07l-5.67,6.29S89.31,17.36,89.16,16.25ZM100.7,8.1l5.81-6.29c1.22-1.11,1.43.34,1.43.34l-.06,14.1c-.15,1.11-1.37.21-1.37.21l-5.67-6.29A1.63,1.63,0,0,1,100.7,8.1ZM90.87,1.38S89.94.21,91.08.07L105.71,0s1.51.21.36,1.38L99.54,7a1.79,1.79,0,0,1-2.15-.13Zm14.84,16.78L91.08,18.1c-1.14-.14-.21-1.32-.21-1.32l6.52-5.45a1.79,1.79,0,0,1,2.15-.15l6.53,5.6C107.22,18,105.71,18.16,105.71,18.16Zm-4.55.85a1.11,1.11,0,0,1,1.13,1.09v4.07a1.1,1.1,0,0,1-1.13,1.08H95.5a1.11,1.11,0,0,1-1.13-1.08V20.1A1.11,1.11,0,0,1,95.5,19Zm2.55,28.66H93.25c-.4,0-.73-.6-.73-1.33V43.82c0-.74.33-1.34.73-1.34h10.46c.4,0,.74.6.74,1.34v2.52C104.45,47.07,104.11,47.67,103.71,47.67Zm.14,1.29v2.16c0,.64-.3,1.15-.66,1.15H93.78c-.37,0-.66-.51-.66-1.15V49c0-.63.29-1.15.66-1.15h9.41C103.55,47.81,103.85,48.33,103.85,49Z"/></svg>