<svg width="1235" height="1067" viewBox="0 0 1235 1067" fill="none" xmlns="http://www.w3.org/2000/svg">
<rect x="-4.17233e-07" y="-9.89949" width="740.185" height="740.185" rx="87" transform="matrix(0.707107 -0.707107 -0.707107 -0.707107 694.711 1049.68)" stroke="url(#paint0_linear_4569_44926)" stroke-width="14"/>
<rect x="-2.38419e-07" y="-5.65685" width="746.185" height="746.185" rx="90" transform="matrix(0.707107 -0.707107 -0.707107 -0.707107 643.222 1056.92)" stroke="url(#paint1_linear_4569_44926)" stroke-width="8"/>
<rect x="-1.19209e-07" y="-2.82843" width="750.185" height="750.185" rx="92" transform="matrix(0.707107 -0.707107 -0.707107 -0.707107 603.116 1061.75)" stroke="url(#paint2_linear_4569_44926)" stroke-width="4"/>
<rect x="-5.96046e-08" y="-1.41421" width="752.185" height="752.185" rx="93" transform="matrix(0.707107 -0.707107 -0.707107 -0.707107 564.487 1064.16)" stroke="url(#paint3_linear_4569_44926)" stroke-width="2"/>
<rect x="-2.98023e-08" y="-0.707107" width="753.185" height="753.185" rx="93.5" transform="matrix(0.707107 -0.707107 -0.707107 -0.707107 532.789 1065.37)" stroke="url(#paint4_linear_4569_44926)"/>
<defs>
<linearGradient id="paint0_linear_4569_44926" x1="377.093" y1="-127.983" x2="377.071" y2="827.318" gradientUnits="userSpaceOnUse">
<stop stop-color="#950461"/>
<stop offset="1" stop-color="#07167A"/>
</linearGradient>
<linearGradient id="paint1_linear_4569_44926" x1="377.093" y1="-127.983" x2="377.071" y2="827.318" gradientUnits="userSpaceOnUse">
<stop stop-color="#950461"/>
<stop offset="1" stop-color="#07167A"/>
</linearGradient>
<linearGradient id="paint2_linear_4569_44926" x1="377.093" y1="-127.983" x2="377.071" y2="827.318" gradientUnits="userSpaceOnUse">
<stop stop-color="#950461"/>
<stop offset="1" stop-color="#07167A"/>
</linearGradient>
<linearGradient id="paint3_linear_4569_44926" x1="377.093" y1="-127.983" x2="377.071" y2="827.318" gradientUnits="userSpaceOnUse">
<stop stop-color="#950461"/>
<stop offset="1" stop-color="#07167A"/>
</linearGradient>
<linearGradient id="paint4_linear_4569_44926" x1="377.093" y1="-127.983" x2="377.071" y2="827.318" gradientUnits="userSpaceOnUse">
<stop stop-color="#950461"/>
<stop offset="1" stop-color="#07167A"/>
</linearGradient>
</defs>
</svg>
