<svg width="511" height="621" viewBox="0 0 511 621" fill="none" xmlns="http://www.w3.org/2000/svg">
<path opacity="0.1" d="M276.337 125.806C221.98 90.0665 94.0998 28.839 36.9546 2.69257C3.08565 -8.1123 -1.54869 16.1987 0.367754 29.7047C25.0378 239.153 10.6469 493.76 0.367754 594.882C-0.886653 623.141 23.191 622.933 35.3866 619.297C138.248 573.169 242.712 515.231 282.087 492.028C385.366 430.524 469.725 358.006 498.995 329.436C520.738 311.982 508.054 295.844 498.995 289.957C427.911 225.023 344.284 170.48 276.337 125.806Z" fill="url(#paint0_linear_4569_44921)"/>
<path opacity="0.2" d="M272.341 160.901C228.408 131.952 125.053 82.3591 78.8674 61.1809C51.4939 52.4292 47.7483 72.1206 49.2972 83.0604C69.236 252.71 57.6051 458.938 49.2972 540.845C48.2834 563.734 67.7434 563.566 77.6001 560.621C160.735 523.257 245.165 476.329 276.988 457.535C360.46 407.717 428.641 348.979 452.297 325.838C469.87 311.7 459.619 298.629 452.297 293.86C394.846 241.265 327.257 197.086 272.341 160.901Z" fill="url(#paint1_linear_4569_44921)"/>
<path opacity="0.3" d="M268.426 195.401C234.706 173.128 155.375 134.972 119.925 118.678C98.9142 111.945 96.0393 127.095 97.2281 135.512C112.532 266.037 103.605 424.705 97.2281 487.724C96.45 505.334 111.387 505.205 118.952 502.939C182.762 474.192 247.567 438.086 271.993 423.626C336.063 385.297 388.395 340.105 406.552 322.301C420.041 311.423 412.173 301.366 406.552 297.698C362.456 257.232 310.578 223.241 268.426 195.401Z" fill="url(#paint2_linear_4569_44921)"/>
<path opacity="0.6" d="M264.267 232.28C241.397 217.144 187.592 191.214 163.548 180.14C149.298 175.564 147.348 185.86 148.155 191.58C158.534 280.284 152.48 388.112 148.155 430.939C147.627 442.907 157.757 442.819 162.889 441.279C206.167 421.743 250.12 397.206 266.686 387.379C310.14 361.331 345.634 330.619 357.949 318.52C367.097 311.128 361.761 304.293 357.949 301.8C328.041 274.3 292.855 251.2 264.267 232.28Z" fill="url(#paint3_linear_4569_44921)"/>
<defs>
<linearGradient id="paint0_linear_4569_44921" x1="14.6347" y1="5.80936" x2="11.535" y2="620.856" gradientUnits="userSpaceOnUse">
<stop stop-color="#ED178E"/>
<stop offset="1" stop-color="#253D98"/>
</linearGradient>
<linearGradient id="paint1_linear_4569_44921" x1="60.8281" y1="63.7055" x2="58.3118" y2="561.883" gradientUnits="userSpaceOnUse">
<stop stop-color="#ED178E"/>
<stop offset="1" stop-color="#253D98"/>
</linearGradient>
<linearGradient id="paint2_linear_4569_44921" x1="106.079" y1="120.62" x2="104.138" y2="503.91" gradientUnits="userSpaceOnUse">
<stop stop-color="#ED178E"/>
<stop offset="1" stop-color="#253D98"/>
</linearGradient>
<linearGradient id="paint3_linear_4569_44921" x1="154.157" y1="181.46" x2="152.836" y2="441.939" gradientUnits="userSpaceOnUse">
<stop stop-color="#ED178E"/>
<stop offset="1" stop-color="#253D98"/>
</linearGradient>
</defs>
</svg>
