<?xml version="1.0" standalone="no"?>
<!DOCTYPE svg PUBLIC "-//W3C//DTD SVG 20010904//EN"
 "http://www.w3.org/TR/2001/REC-SVG-20010904/DTD/svg10.dtd">
<svg version="1.0" xmlns="http://www.w3.org/2000/svg"
 width="520.000000pt" height="520.000000pt" viewBox="0 0 520.000000 520.000000"
 preserveAspectRatio="xMidYMid meet">
<metadata>
Created by potrace 1.14, written by Peter Selinger 2001-2017
</metadata>
<g transform="translate(0.000000,520.000000) scale(0.100000,-0.100000)"
fill="#000000" stroke="none">
<path d="M2450 5091 c0 -12 112 -111 126 -111 9 0 72 49 112 87 7 7 16 13 19
13 7 0 -16 -31 -34 -46 -7 -6 -26 -28 -43 -49 -16 -21 -30 -32 -30 -25 0 9 -9
11 -30 7 -20 -4 -32 -2 -37 7 -4 8 -28 36 -52 62 -60 63 -59 66 -52 -194 1
-32 12 -26 69 40 42 48 52 55 62 43 7 -8 9 -15 4 -15 -14 0 -120 -98 -113
-104 3 -4 58 -7 122 -8 157 -2 155 -4 155 150 0 156 5 152 -155 152 -67 0
-123 -4 -123 -9z m237 -245 c36 -41 13 -29 -43 22 -28 26 -49 53 -46 61 4 13
14 3 89 -83z"/>
<path d="M2520 4782 c-5 -2 -10 -26 -10 -53 l0 -49 65 0 65 0 -1 50 c-1 34 -6
50 -15 51 -35 3 -95 4 -104 1z"/>
<path d="M2277 4682 c-10 -10 -17 -26 -17 -35 0 -9 -4 -17 -10 -17 -5 0 -10 4
-10 10 0 16 -40 32 -65 26 -24 -6 -41 -38 -36 -66 2 -10 -5 -7 -19 8 -11 12
-30 22 -40 22 -29 0 -62 -37 -55 -61 7 -20 -9 -27 -20 -9 -10 16 -52 12 -70
-7 -11 -10 -15 -27 -13 -45 4 -28 -5 -38 -17 -18 -10 16 -51 11 -68 -8 -20
-22 -22 -53 -4 -71 10 -10 5 -11 -24 -6 -27 5 -40 2 -52 -10 -19 -18 -23 -60
-7 -70 16 -10 2 -24 -19 -18 -22 6 -61 -29 -61 -54 0 -9 7 -25 17 -35 15 -17
15 -18 -10 -18 -56 0 -77 -63 -32 -98 24 -19 24 -21 7 -26 -10 -4 -24 -18 -31
-32 -9 -22 -9 -31 4 -50 15 -23 21 -24 123 -24 l109 0 146 115 c81 63 152 115
159 115 7 0 33 14 57 30 24 16 69 38 100 47 75 22 81 28 81 77 1 36 5 44 43
72 l42 31 -1 -74 c-1 -40 1 -73 5 -73 3 0 5 -18 3 -40 l-4 -41 87 3 87 3 5 80
c3 67 7 101 12 123 1 2 21 -11 44 -28 35 -25 43 -36 40 -54 -8 -40 12 -61 74
-79 74 -21 128 -55 309 -194 l146 -113 103 0 c81 0 107 3 119 16 24 24 20 61
-9 80 l-25 16 25 24 c14 13 25 32 25 43 0 22 -35 51 -63 51 -16 0 -17 2 -3 21
28 41 -13 100 -58 83 -19 -7 -20 -3 -5 30 10 21 9 30 -6 52 -14 22 -22 25 -50
21 -32 -5 -33 -4 -26 16 19 50 -31 93 -79 67 -20 -11 -21 -10 -15 10 16 51
-52 92 -90 53 -16 -15 -17 -15 -15 3 4 31 1 42 -16 58 -21 22 -46 20 -72 -4
l-22 -21 0 24 c0 50 -61 74 -95 37 -21 -23 -37 -26 -29 -6 7 18 -30 56 -53 56
-26 0 -40 -12 -52 -43 l-11 -27 -194 0 -194 0 -21 35 c-23 40 -57 47 -84 17z"/>
<path d="M2543 4173 c-16 -6 -17 -37 -3 -64 30 -55 -89 -154 -179 -148 -73 5
-151 61 -151 108 0 53 -57 74 -81 30 -10 -20 3 -59 21 -59 19 0 10 -77 -13
-121 -28 -52 -86 -95 -139 -102 -72 -10 -158 25 -164 67 -7 52 -68 58 -80 9
-8 -29 15 -53 48 -53 21 0 78 -84 97 -142 11 -33 10 -40 -9 -66 -22 -29 -19
-56 7 -66 8 -3 54 8 101 25 48 17 96 33 107 35 11 2 63 12 115 23 231 48 498
47 757 -3 48 -10 150 -40 191 -58 60 -25 99 -24 107 3 5 14 0 28 -13 42 -15
17 -17 28 -11 52 14 51 72 138 104 155 42 23 47 66 9 80 -32 13 -54 -2 -54
-35 0 -30 -39 -55 -100 -62 -74 -9 -148 30 -183 96 -30 54 -34 91 -13 124 19
31 5 67 -27 67 -30 0 -51 -23 -44 -50 6 -25 -46 -73 -98 -90 -51 -17 -121 -6
-168 27 -42 29 -80 93 -71 117 3 9 3 27 0 41 -6 24 -31 32 -63 18z"/>
<path d="M2145 3539 c-145 -21 -225 -62 -331 -167 -120 -119 -168 -237 -167
-412 0 -123 19 -203 70 -305 62 -125 149 -223 250 -282 24 -13 43 -28 43 -32
0 -3 -11 -22 -24 -41 -25 -37 -93 -204 -146 -360 -36 -105 -107 -250 -142
-291 -32 -37 -88 -69 -120 -69 -71 0 -94 35 -72 109 7 22 5 23 -22 17 -42 -11
-64 -35 -64 -70 0 -69 59 -109 159 -108 139 1 265 78 357 217 52 78 79 156
119 345 51 236 44 221 98 205 59 -18 156 -13 195 10 75 45 75 145 0 190 -72
42 -185 26 -250 -36 l-41 -38 -26 18 c-90 65 -184 222 -208 349 -13 66 -7 224
11 292 50 186 203 337 375 368 48 9 259 8 268 -1 2 -2 -21 -20 -51 -40 -133
-88 -200 -193 -200 -312 0 -108 40 -165 114 -165 70 0 118 81 95 163 -10 36
-18 34 -33 -7 -15 -42 -49 -54 -76 -26 -26 26 -29 96 -6 147 18 40 85 123 100
123 10 0 60 -124 60 -148 0 -10 -6 -24 -12 -30 -10 -10 -10 -15 1 -21 15 -10
15 37 6 -1036 -2 -236 -4 -472 -4 -522 l-1 -93 -40 -42 c-22 -24 -38 -47 -37
-53 4 -9 48 -11 147 -5 19 1 72 -2 118 -6 96 -8 99 -3 40 59 -24 24 -38 48
-39 65 -1 50 2 502 7 1061 3 382 8 559 15 568 8 9 8 17 0 26 -12 16 6 87 37
145 l18 33 42 -45 c47 -51 72 -103 72 -151 0 -40 -18 -92 -33 -98 -25 -9 -55
13 -67 49 l-13 37 -14 -28 c-21 -38 -12 -109 17 -140 46 -49 117 -41 161 18
21 28 24 43 24 112 0 66 -5 89 -27 135 -32 64 -93 132 -160 180 -27 18 -48 37
-48 41 0 14 213 8 275 -7 190 -49 334 -221 364 -435 10 -74 6 -177 -10 -242
-31 -132 -121 -272 -213 -332 -27 -18 -27 -18 -56 14 -108 118 -328 79 -315
-56 8 -87 114 -128 257 -99 45 10 38 30 89 -233 35 -177 57 -241 111 -328 82
-131 201 -209 334 -220 100 -9 154 18 174 87 8 29 6 36 -20 61 -32 33 -77 41
-65 12 18 -42 16 -69 -5 -88 -68 -61 -172 3 -244 151 -20 41 -59 143 -87 227
-62 184 -101 283 -128 328 -12 19 -21 39 -21 44 0 6 21 21 46 35 61 32 172
140 217 212 123 194 147 433 63 622 -22 49 -97 151 -141 189 -79 71 -205 129
-310 144 -107 15 -278 5 -373 -22 -49 -15 -57 -14 -120 4 -101 30 -271 43
-367 30z m506 -155 l69 -37 -23 -21 c-13 -12 -44 -39 -70 -60 l-47 -38 -32 25
c-84 66 -110 94 -96 103 16 10 122 63 127 64 1 0 34 -16 72 -36z m-357 -934
c36 -13 45 -56 18 -82 -24 -24 -93 -28 -141 -8 -37 15 -39 29 -8 58 40 38 86
49 131 32z m646 -15 c27 -14 60 -51 60 -66 0 -13 -63 -32 -103 -31 -52 2 -87
25 -87 57 0 48 71 70 130 40z"/>
<path d="M1238 1210 c16 -13 18 -30 16 -135 -2 -165 -2 -163 -21 -168 -10 -3
14 -5 52 -5 49 0 63 3 48 9 -13 5 -24 16 -24 26 -5 62 -4 89 4 94 17 12 48 -3
62 -30 8 -14 28 -42 45 -61 29 -33 34 -34 103 -37 39 -1 64 0 55 3 -10 3 -18
10 -18 15 0 23 26 89 35 90 65 5 87 3 94 -5 10 -13 36 -88 33 -98 -1 -3 21 -6
48 -6 l50 -1 -25 22 c-14 13 -46 78 -81 165 -31 78 -59 142 -64 142 -4 0 -18
-28 -30 -62 -12 -35 -31 -81 -40 -103 -10 -22 -26 -62 -36 -88 -9 -26 -22 -51
-27 -54 -6 -3 -33 18 -60 48 -62 68 -73 87 -53 95 21 8 46 67 41 95 -6 29 -39
59 -69 60 -147 5 -156 4 -138 -11z m137 -22 c10 -12 21 -46 20 -58 -1 -8 -3
-23 -3 -32 -3 -24 -43 -49 -68 -42 -17 5 -19 13 -18 72 1 37 2 70 3 74 1 6 60
-7 66 -14z m288 -103 c9 -25 15 -46 14 -46 -5 -4 -63 -5 -69 -2 -9 4 21 93 32
93 4 0 15 -20 23 -45z"/>
<path d="M1850 1219 c0 -4 5 -9 11 -11 15 -5 13 -316 -2 -355 -5 -15 -20 -36
-32 -46 -22 -18 -21 -18 9 -3 42 20 84 71 85 104 1 15 3 86 4 157 1 72 4 136
6 144 3 10 -7 14 -38 16 -24 1 -43 -2 -43 -6z"/>
<path d="M2104 1194 c-86 -216 -111 -269 -132 -280 -20 -10 -15 -11 35 -11 32
0 50 2 41 4 -22 6 -22 18 1 68 19 43 16 42 102 36 15 -1 45 -70 42 -97 0 -8
20 -12 56 -13 51 0 54 1 31 12 -19 10 -38 45 -85 159 -33 81 -63 150 -68 154
-4 4 -14 -10 -23 -32z m41 -135 c6 -23 3 -25 -30 -25 -34 0 -36 2 -32 26 3 14
11 39 18 55 l11 30 14 -31 c7 -17 16 -42 19 -55z"/>
<path d="M2358 1215 c-61 -33 -49 -104 27 -170 43 -36 55 -53 55 -75 0 -62
-80 -72 -110 -14 l-15 29 -3 -34 c-4 -44 7 -54 63 -54 124 0 151 119 44 198
-48 35 -62 58 -54 85 13 40 87 38 100 -3 7 -21 8 -20 12 7 3 17 -1 32 -9 37
-20 13 -80 10 -110 -6z"/>
<path d="M2527 1198 c-4 -30 7 -38 17 -13 7 19 92 21 98 3 3 -11 3 -170 -1
-250 -1 -16 -8 -28 -18 -30 -10 -2 14 -5 52 -5 50 -1 64 1 48 7 -24 10 -24 12
-24 205 0 87 -1 85 29 85 43 0 71 -11 75 -29 3 -9 5 0 6 19 l1 35 -139 0 -139
0 -5 -27z"/>
<path d="M2853 1217 c-2 -4 -1 -7 4 -6 31 5 33 -2 33 -146 0 -124 -2 -145 -17
-153 -11 -7 4 -10 53 -10 42 0 59 3 44 7 -24 7 -25 11 -25 81 l0 75 80 0 80 0
3 -70 c2 -57 0 -72 -14 -82 -15 -11 3 -13 102 -12 65 0 113 3 107 6 -16 6 -16
27 -1 69 10 29 16 33 55 36 25 2 48 1 53 -2 5 -3 18 -26 29 -52 14 -34 16 -48
8 -52 -7 -2 40 -4 103 -4 63 0 108 2 99 5 -21 5 -26 29 -28 140 l-2 88 116
-117 c64 -65 120 -118 124 -118 5 0 10 68 10 151 2 156 4 174 23 163 6 -4 8
-3 5 3 -7 11 -85 9 -95 -2 -4 -5 -2 -5 5 -1 20 11 29 -25 31 -129 l2 -100
-119 123 c-66 67 -122 122 -125 122 -4 0 -6 -65 -6 -144 0 -79 -3 -151 -6
-160 -4 -10 -18 -16 -36 -16 -27 0 -32 6 -62 73 -18 39 -48 111 -66 160 -19
48 -37 87 -41 87 -4 0 -35 -71 -70 -157 l-64 -158 -37 -3 c-21 -2 -39 0 -39 5
-1 4 -3 70 -4 146 -2 109 1 140 11 144 28 10 13 18 -36 18 -48 0 -61 -7 -40
-20 6 -3 10 -31 10 -61 l0 -54 -84 0 -83 0 1 54 c1 30 4 58 9 62 4 4 7 10 7
13 0 9 -101 7 -107 -2z m539 -137 l15 -45 -38 -1 c-22 -1 -39 2 -39 5 0 19 35
100 41 94 3 -5 13 -28 21 -53z"/>
<path d="M1783 688 c-79 -26 -134 -73 -170 -146 -24 -49 -28 -68 -27 -142 0
-97 21 -151 79 -212 62 -63 115 -82 230 -82 110 0 150 14 219 75 121 106 137
316 32 433 -26 29 -101 74 -139 83 -64 14 -165 10 -224 -9z m171 -32 c52 -22
102 -72 127 -128 18 -43 23 -71 23 -143 0 -96 -16 -149 -57 -194 -67 -72 -201
-66 -279 13 -85 86 -106 274 -43 382 43 73 147 104 229 70z"/>
<path d="M2971 578 c-187 -462 -171 -429 -215 -448 l-41 -18 103 -1 c64 0 100
4 97 10 -4 5 -10 7 -14 4 -5 -2 -15 1 -24 8 -15 11 -14 19 12 92 27 80 28 80
67 85 21 3 65 3 96 2 l57 -4 30 -84 c17 -46 28 -90 25 -99 -5 -13 9 -15 97
-15 92 0 125 8 67 17 -47 7 -56 25 -158 278 -40 99 -83 204 -96 233 -13 29
-24 57 -24 62 0 6 -6 10 -13 10 -7 0 -36 -58 -66 -132z m77 -110 c17 -46 33
-91 37 -100 6 -16 -1 -18 -69 -18 -42 0 -76 2 -76 4 0 3 14 42 30 88 17 46 33
89 35 96 2 6 6 12 9 12 2 0 18 -37 34 -82z"/>
<path d="M3977 695 c-85 -29 -121 -97 -98 -182 12 -43 46 -83 134 -156 93 -78
110 -135 58 -188 -32 -32 -88 -39 -135 -18 -25 12 -56 63 -56 93 0 31 -20 16
-21 -16 -1 -18 -2 -46 -3 -62 -3 -40 15 -53 78 -61 147 -19 246 47 246 165 0
61 -25 104 -93 163 -119 102 -137 122 -137 156 0 21 9 41 26 58 22 22 32 25
75 21 46 -5 86 -31 90 -60 1 -4 2 -12 3 -18 0 -5 5 -11 10 -12 5 -2 10 23 11
54 2 44 -2 58 -14 64 -32 12 -137 12 -174 -1z"/>
<path d="M1000 688 c0 -4 13 -8 30 -8 18 0 33 -7 39 -19 11 -19 11 -515 0
-525 -3 -3 -15 -7 -27 -9 -61 -9 -21 -17 89 -16 80 0 118 3 109 9 -8 6 -23 10
-32 10 -27 0 -35 27 -37 128 l-3 92 44 0 c44 0 45 -1 100 -77 68 -95 111 -141
144 -153 35 -14 154 -13 154 1 0 5 -4 8 -8 5 -4 -2 -26 3 -47 13 -37 17 -63
43 -160 161 -20 25 -43 53 -51 63 -14 17 -13 22 20 54 94 94 88 210 -14 263
-28 15 -350 22 -350 8z m269 -41 c53 -27 76 -87 65 -166 -10 -65 -43 -93 -108
-89 l-51 3 -3 119 c-1 66 0 126 2 133 7 16 63 17 95 0z"/>
<path d="M2220 693 c0 -2 13 -9 30 -14 34 -12 71 -60 160 -209 l64 -105 0
-100 c0 -114 -5 -135 -33 -135 -11 0 -22 -4 -26 -10 -3 -5 43 -9 120 -9 69 0
125 3 125 7 0 4 -14 8 -32 9 -17 1 -36 7 -42 13 -7 7 -11 56 -11 123 l0 112
43 75 c86 149 135 214 170 225 17 5 32 12 32 16 0 8 -167 5 -176 -4 -4 -4 0
-7 9 -7 31 0 18 -42 -47 -158 l-63 -112 -51 87 c-92 161 -97 172 -78 186 13
10 -4 12 -89 13 -58 0 -105 -1 -105 -3z"/>
<path d="M3370 688 c0 -5 10 -8 23 -8 45 0 47 -10 47 -264 0 -133 -3 -251 -6
-263 -4 -16 -14 -23 -30 -23 -13 0 -24 -4 -24 -10 0 -6 70 -10 189 -10 212 0
195 -6 205 78 3 23 1 42 -5 42 -5 0 -9 -7 -9 -15 0 -9 -11 -27 -24 -40 -20
-20 -32 -23 -96 -21 -58 1 -74 5 -86 21 -11 15 -14 67 -14 250 0 244 2 255 47
255 13 0 23 3 23 8 0 4 -54 7 -120 7 -66 0 -120 -3 -120 -7z"/>
</g>
</svg>
